<?xml version="1.0" encoding="UTF-8" standalone="no"?>
<svg
   xmlns:dc="http://purl.org/dc/elements/1.1/"
   xmlns:cc="http://creativecommons.org/ns#"
   xmlns:rdf="http://www.w3.org/1999/02/22-rdf-syntax-ns#"
   xmlns:svg="http://www.w3.org/2000/svg"
   xmlns="http://www.w3.org/2000/svg"
   xmlns:sodipodi="http://sodipodi.sourceforge.net/DTD/sodipodi-0.dtd"
   xmlns:inkscape="http://www.inkscape.org/namespaces/inkscape"
   version="1.1"
   width="453.5433"
   height="453.5433"
   id="svg370"
   viewBox="0 0 453.5433 453.5433"
   sodipodi:docname="ProSpectralLogo_Square_V2.svg"
   inkscape:version="1.0.2-2 (e86c870879, 2021-01-15)">
  <metadata
     id="metadata376">
    <rdf:RDF>
      <cc:Work
         rdf:about="">
        <dc:format>image/svg+xml</dc:format>
        <dc:type
           rdf:resource="http://purl.org/dc/dcmitype/StillImage" />
        <dc:title></dc:title>
      </cc:Work>
    </rdf:RDF>
  </metadata>
  <defs
     id="defs374" />
  <sodipodi:namedview
     pagecolor="#ffffff"
     bordercolor="#666666"
     borderopacity="1"
     objecttolerance="10"
     gridtolerance="10"
     guidetolerance="10"
     inkscape:pageopacity="0"
     inkscape:pageshadow="2"
     inkscape:window-width="1920"
     inkscape:window-height="1017"
     id="namedview372"
     showgrid="false"
     inkscape:zoom="0.93706598"
     inkscape:cx="154.67956"
     inkscape:cy="126.64206"
     inkscape:window-x="-8"
     inkscape:window-y="-8"
     inkscape:window-maximized="1"
     inkscape:current-layer="svg370" />
  <path
     d="M 0,453.5433 H 453.5433 V 0 H 0 Z"
     style="fill:#002f5f;fill-rule:evenodd"
     id="path356" />
  <path
     d="m 446.4567,393.1406 -41.2186,-10.9053 -23.9829,-6.2927 -17.7282,-4.3035 -14.8733,-3.2213 -13.1713,-2.4598 -12.6046,-1.9419 -11.4627,-1.3595 -10.897,-0.8919 -10.8985,-0.4698 -10.3359,-0.0293 -10.3279,0.3933 -10.3369,0.8174 -10.3294,1.2552 -10.3279,1.6804 -10.905,2.2304 -10.8949,2.677 -12.0358,3.4299 -13.1742,4.2652 -14.8791,5.3347 -37.6817,14.8363 -18.8219,7.3514 -14.2282,5.1857 -11.9419,3.9505 -10.7921,3.1678 -10.223,2.5896 -9.6384,2.0339 -9.6419,1.5993 -9.0602,1.0757 -9.0653,0.6572 -9.0995,0.2173 0.069,2.8882 9.1696,-0.2189 9.2011,-0.6671 9.1922,-1.0913 9.7699,-1.6205 9.7568,-2.059 10.3315,-2.6171 10.8911,-3.1968 12.0296,-3.9795 14.3001,-5.2119 18.8562,-7.3649 37.644,-14.8214 14.7948,-5.3045 13.0826,-4.2355 11.9356,-3.4013 10.7884,-2.6509 10.7922,-2.2073 10.2127,-1.6616 10.2112,-1.2409 10.2176,-0.808 10.2099,-0.3888 10.2186,0.029 10.7848,0.4649 10.7891,0.8831 11.3605,1.3474 12.5095,1.9272 13.0855,2.4437 14.7978,3.205 17.6673,4.2888 23.9544,6.2851 41.9546,11.1001 z"
     style="fill:none;stroke:#ffffff;stroke-width:8.5039;stroke-linecap:round;stroke-linejoin:round;stroke-dasharray:none"
     id="path358" />
  <path
     d="M 446.4567,426.0134 H 238.7872 l -51.9167,-0.0302 -13.6642,-0.1949 -7.9212,-0.4104 -5.6109,-0.6209 -4.4313,-0.8554 -3.8455,-1.1519 -3.27,-1.4016 -2.7134,-1.5557 -2.7112,-2.0186 -2.7287,-2.5907 -2.7546,-3.3067 -2.7719,-4.1598 -2.7917,-5.1934 -2.8107,-6.398 -2.8287,-7.7656 -2.8294,-9.3074 -2.8387,-11.0069 -2.848,-12.8499 -3.4178,-17.9869 -3.4173,-20.8529 -3.419,-23.6838 -3.9926,-30.8637 -10.2679,-89.2592 -4.5705,-39.2147 -3.4255,-26.5811 -2.8635,-19.1177 -2.289,-12.6896 -1.7327,-7.7472 -1.7364,-6.042 -1.2047,-3.0723 -1.2911,-2.3114 -1.5051,-1.4941 -1.1445,-0.4205 -1.2758,0.0681 -1.7189,1.1876 -1.3641,2.1292 -1.2235,2.9801 -1.7523,6.1933 -1.7251,8.4197 -1.7237,10.6058 -2.2849,17.4329 -2.8613,26.67 -3.4257,38.032 -7.4185,95.3173 -4.566,58.3981 -2.8513,32.7815 -2.2775,22.9018 -2.2829,19.2123 -1.6998,11.6121 -1.7015,8.9778 -1.1177,4.4023 -1.0687,3.0585 -0.9506,1.6254 -0.1489,0.1274 -0.2723,0.0787 0.8024,2.7754 0.8732,-0.2524 0.9938,-0.8505 1.3375,-2.2869 1.2027,-3.4421 1.1706,-4.6108 1.7293,-9.1243 1.7143,-11.7109 2.2907,-19.2785 2.2821,-22.9471 2.8539,-32.812 4.5671,-58.4111 7.4171,-95.3003 3.422,-37.99 2.8549,-26.6119 2.2748,-17.3552 1.7071,-10.5034 1.6918,-8.2574 1.6786,-5.9325 1.0618,-2.5864 0.9103,-1.4208 0.4848,-0.335 -0.0533,-0.0529 0.1377,-0.0054 -0.0844,0.0583 0.7158,0.7106 0.9971,1.7851 1.0835,2.7631 1.675,5.8286 1.7008,7.6043 2.2707,12.5881 2.8527,19.0458 3.4195,26.5344 4.5682,39.1951 10.27,89.2773 3.9979,30.9051 3.426,23.7321 3.4277,20.9161 3.4328,18.066 2.8682,12.941 2.8664,11.1146 2.8702,9.4415 2.8875,7.9269 2.8944,6.5884 2.9106,5.4147 2.9333,4.4021 2.9615,3.555 2.9765,2.8259 2.9883,2.2249 3.0083,1.7248 3.5751,1.5324 4.1422,1.2408 4.688,0.905 5.8104,0.643 8.0597,0.4175 13.7381,0.1959 51.9374,0.0303 H 446.4567 Z M 70.7793,56.7732 l 0.0046,0.0017"
     style="fill:none;stroke:#ffffff;stroke-width:8.5039;stroke-linecap:round;stroke-linejoin:round;stroke-dasharray:none"
     id="path360" />
  <path
     d="m 446.4567,426.0134 h -55.8574 l -82.1742,-0.0377 -24.5223,-0.2104 -14.7976,-0.4278 -10.7868,-0.6587 -8.4922,-0.8955 -7.3369,-1.1682 -6.1904,-1.3859 -5.6039,-1.6712 -5.0366,-1.9096 -5.0338,-2.3809 -4.4658,-2.5677 -4.4636,-3.0713 -4.4779,-3.6445 -4.4869,-4.2728 -4.4966,-4.9711 -4.5084,-5.742 -4.5189,-6.5361 -4.528,-7.3936 -4.5302,-8.2423 -5.1129,-10.2948 -5.1179,-11.3159 -6.2592,-15.076 -8.5536,-22.2229 -11.9846,-32.1673 -5.7224,-14.5894 -4.5784,-10.7959 -4.0246,-8.5379 -3.4678,-6.4728 -2.9046,-4.7073 -2.9291,-3.9943 -2.3916,-2.6615 -2.4357,-2.1292 -2.4914,-1.5452 -1.9639,-0.7668 -1.9981,-0.3777 -2.011,0.0458 -1.9993,0.4735 -1.9615,0.8884 -2.5014,1.7703 -2.4324,2.4472 -2.3891,3.1048 -2.9246,4.7671 -2.8984,5.7715 -3.4581,8.1721 -3.4449,9.4747 -4.0091,12.5201 -4.5774,15.9508 -6.8538,26.2342 -10.2765,40.881 -5.1311,19.2725 -3.9845,13.7016 -3.4087,10.5162 -2.8298,7.7285 -2.8197,6.6742 -2.2416,4.4916 -2.2095,3.6893 -2.1778,2.8518 -1.5557,1.5483 -1.4919,1.0667 -1.39,0.5937 -1.5286,0.2212 0.4138,2.8593 1.9023,-0.2753 2.0269,-0.8657 1.939,-1.3865 1.8612,-1.8523 2.3957,-3.1371 2.3501,-3.9242 2.3319,-4.6724 2.8827,-6.8231 2.8726,-7.8456 3.439,-10.6096 4.006,-13.7755 5.1447,-19.3237 10.2781,-40.8876 6.8417,-26.1878 4.5558,-15.8753 3.9786,-12.4248 3.4002,-9.3519 3.3924,-8.0169 2.8012,-5.5778 2.7805,-4.5324 2.1844,-2.8388 2.1273,-2.1402 2.072,-1.4664 1.4556,-0.6592 1.4315,-0.3391 1.4032,-0.0319 1.4355,0.2713 1.4669,0.5728 2.0655,1.281 2.1267,1.8591 2.1792,2.4251 2.776,3.7854 2.7977,4.5341 3.3911,6.3297 3.9686,8.4193 4.5409,10.7071 5.6989,14.5297 11.9814,32.1587 8.5727,22.2726 6.291,15.1524 5.158,11.4047 5.1629,10.3956 4.5918,8.3543 4.6052,7.5197 4.6143,6.6741 4.6248,5.8903 4.6365,5.1256 4.6463,4.4247 4.6553,3.7888 4.6557,3.2035 4.6674,2.6836 5.242,2.4794 5.242,1.9875 5.8008,1.7299 6.3764,1.4276 7.5013,1.1943 8.6315,0.9102 10.8965,0.6654 14.8734,0.4301 24.5633,0.2106 82.1867,0.0378 h 55.858 z"
     style="fill:none;stroke:#ffffff;stroke-width:8.5039;stroke-linecap:round;stroke-linejoin:round;stroke-dasharray:none"
     id="path362" />
  <path
     d="m 446.4567,425.987 -20.4711,-0.004 -38.7933,-0.1804 -22.2319,-0.3833 -15.9463,-0.608 -13.0817,-0.8548 -10.7862,-1.0929 -9.6433,-1.3828 -8.4919,-1.6194 -7.9148,-1.9451 -7.3399,-2.2408 -6.7659,-2.4982 -6.7679,-2.9818 -6.2044,-3.1878 -6.2,-3.6804 -6.2126,-4.1891 -6.21,-4.7352 -6.2177,-5.308 -6.2312,-5.8736 -6.8009,-7.0475 -7.3801,-8.3443 -7.9533,-9.7149 -23.3852,-31.0213 -9.1496,-11.9921 -6.8794,-8.4473 -5.7583,-6.4715 -5.201,-5.229 -4.6356,-4.087 -4.0927,-3.0816 -4.1128,-2.5568 -3.5606,-1.737 -3.593,-1.2858 -3.6156,-0.7846 -3.6205,-0.2699 -3.05,0.1853 -3.6237,0.7312 -3.6095,1.2943 -3.5906,1.841 -3.5521,2.3806 -3.5286,2.9095 -4.0825,4.0442 -4.0642,4.7146 -4.6214,6.1576 -4.6075,6.9078 -5.1621,8.5774 -6.3057,11.4101 -9.1393,17.8189 -11.9816,23.8648 -6.8354,12.9213 -5.1051,8.9531 -4.5319,7.2421 -3.9497,5.6678 -3.9344,4.9715 -3.3426,3.6297 -3.3234,3.0234 -2.736,2.0311 -2.7018,1.5749 -2.6642,1.1178 -2.6384,0.6667 -2.7348,0.2308 0.243,2.8788 2.9703,-0.2506 3.0778,-0.7778 3.0381,-1.2746 3.0034,-1.7508 2.9802,-2.2124 3.5244,-3.2062 3.5024,-3.8032 4.056,-5.1252 4.0409,-5.7985 4.6012,-7.3529 5.1569,-9.0442 6.8713,-12.9889 11.9898,-23.8811 9.1132,-17.768 6.2583,-11.3244 5.0999,-8.4741 4.5257,-6.7851 4.5145,-6.0153 3.9262,-4.5544 3.9081,-3.8715 3.3164,-2.7345 3.2929,-2.2069 3.2739,-1.6786 3.2354,-1.1602 3.2214,-0.65 2.6551,-0.1613 3.2245,0.2404 3.235,0.702 3.2659,1.1687 3.2844,1.6023 3.8777,2.4106 3.9005,2.9369 4.481,3.9507 5.0776,5.105 5.663,6.3643 6.8106,8.3629 9.1168,11.9489 23.415,31.0609 8.0248,9.8023 7.4582,8.4327 6.892,7.1418 6.3327,5.9693 6.3324,5.406 6.3402,4.8345 6.3514,4.2826 6.3474,3.7679 6.3595,3.2675 6.9278,3.0523 6.9268,2.5576 7.4957,2.2883 8.0661,1.9823 8.6318,1.6461 9.7684,1.4007 10.8971,1.1042 13.1724,0.8607 16.0156,0.6106 22.2802,0.3842 38.8179,0.1804 20.4781,0.004 z"
     style="fill:none;stroke:#ffffff;stroke-width:8.5039;stroke-linecap:round;stroke-linejoin:round;stroke-dasharray:none"
     id="path364" />
  <path
     d="M 7.0866,446.4567 H 446.4567 V 7.0866 H 7.0866 Z"
     style="fill:none;stroke:#002f5f;stroke-width:14.1732;stroke-linecap:round;stroke-linejoin:round;stroke-dasharray:none"
     id="path366" />
  <path
     d="M 21.2598,432.2835 H 432.2835 V 21.2598 H 21.2598 Z"
     style="fill:none;stroke:#ffffff;stroke-width:14.1732;stroke-linecap:round;stroke-linejoin:round;stroke-dasharray:none"
     id="path368" />
</svg>
